<mxfile host="app.diagrams.net" agent="Mozilla/5.0 (Macintosh; Intel Mac OS X 10_15_7) AppleWebKit/537.36 (KHTML, like Gecko) Chrome/138.0.0.0 Safari/537.36" version="28.2.5">
  <diagram name="Page-1" id="3e8102d1-ef87-2e61-34e1-82d9a586fe2e">
    <mxGraphModel dx="2021" dy="1154" grid="1" gridSize="10" guides="1" tooltips="1" connect="1" arrows="1" fold="1" page="1" pageScale="1" pageWidth="1100" pageHeight="850" background="none" math="0" shadow="0">
      <root>
        <mxCell id="0" />
        <mxCell id="1" parent="0" />
        <mxCell id="fPccxqtcktVZ9pP1lJ3p-15" style="edgeStyle=orthogonalEdgeStyle;rounded=0;orthogonalLoop=1;jettySize=auto;html=1;exitX=1;exitY=0.5;exitDx=0;exitDy=0;entryX=0.5;entryY=0;entryDx=0;entryDy=0;" edge="1" parent="1" source="fPccxqtcktVZ9pP1lJ3p-10" target="fPccxqtcktVZ9pP1lJ3p-11">
          <mxGeometry relative="1" as="geometry" />
        </mxCell>
        <mxCell id="fPccxqtcktVZ9pP1lJ3p-10" value="Моделирование" style="rounded=1;whiteSpace=wrap;html=1;" vertex="1" parent="1">
          <mxGeometry x="400" y="130" width="120" height="60" as="geometry" />
        </mxCell>
        <mxCell id="fPccxqtcktVZ9pP1lJ3p-17" style="edgeStyle=orthogonalEdgeStyle;rounded=0;orthogonalLoop=1;jettySize=auto;html=1;exitX=0.5;exitY=1;exitDx=0;exitDy=0;entryX=1;entryY=0.5;entryDx=0;entryDy=0;" edge="1" parent="1" source="fPccxqtcktVZ9pP1lJ3p-11" target="fPccxqtcktVZ9pP1lJ3p-12">
          <mxGeometry relative="1" as="geometry" />
        </mxCell>
        <mxCell id="fPccxqtcktVZ9pP1lJ3p-11" value="Разработка" style="rounded=1;whiteSpace=wrap;html=1;" vertex="1" parent="1">
          <mxGeometry x="560" y="190" width="120" height="60" as="geometry" />
        </mxCell>
        <mxCell id="fPccxqtcktVZ9pP1lJ3p-18" style="edgeStyle=orthogonalEdgeStyle;rounded=0;orthogonalLoop=1;jettySize=auto;html=1;exitX=0;exitY=0.5;exitDx=0;exitDy=0;entryX=1;entryY=0.5;entryDx=0;entryDy=0;" edge="1" parent="1" source="fPccxqtcktVZ9pP1lJ3p-12" target="fPccxqtcktVZ9pP1lJ3p-13">
          <mxGeometry relative="1" as="geometry" />
        </mxCell>
        <mxCell id="fPccxqtcktVZ9pP1lJ3p-12" value="Развёртывание" style="rounded=1;whiteSpace=wrap;html=1;" vertex="1" parent="1">
          <mxGeometry x="480" y="270" width="120" height="60" as="geometry" />
        </mxCell>
        <mxCell id="fPccxqtcktVZ9pP1lJ3p-19" style="edgeStyle=orthogonalEdgeStyle;rounded=0;orthogonalLoop=1;jettySize=auto;html=1;exitX=0;exitY=0.5;exitDx=0;exitDy=0;entryX=0.5;entryY=1;entryDx=0;entryDy=0;" edge="1" parent="1" source="fPccxqtcktVZ9pP1lJ3p-13" target="fPccxqtcktVZ9pP1lJ3p-14">
          <mxGeometry relative="1" as="geometry" />
        </mxCell>
        <mxCell id="fPccxqtcktVZ9pP1lJ3p-13" value="Наблюдение" style="rounded=1;whiteSpace=wrap;html=1;" vertex="1" parent="1">
          <mxGeometry x="320" y="270" width="120" height="60" as="geometry" />
        </mxCell>
        <mxCell id="fPccxqtcktVZ9pP1lJ3p-20" style="edgeStyle=orthogonalEdgeStyle;rounded=0;orthogonalLoop=1;jettySize=auto;html=1;exitX=0.5;exitY=0;exitDx=0;exitDy=0;entryX=0;entryY=0.5;entryDx=0;entryDy=0;" edge="1" parent="1" source="fPccxqtcktVZ9pP1lJ3p-14" target="fPccxqtcktVZ9pP1lJ3p-10">
          <mxGeometry relative="1" as="geometry" />
        </mxCell>
        <mxCell id="fPccxqtcktVZ9pP1lJ3p-14" value="Адаптирование" style="rounded=1;whiteSpace=wrap;html=1;" vertex="1" parent="1">
          <mxGeometry x="240" y="190" width="120" height="60" as="geometry" />
        </mxCell>
        <mxCell id="fPccxqtcktVZ9pP1lJ3p-21" value="Бизнес-требования" style="text;html=1;align=center;verticalAlign=middle;whiteSpace=wrap;rounded=0;" vertex="1" parent="1">
          <mxGeometry x="370" y="210" width="70" height="30" as="geometry" />
        </mxCell>
        <mxCell id="fPccxqtcktVZ9pP1lJ3p-22" value="ИТ-требования" style="text;html=1;align=center;verticalAlign=middle;whiteSpace=wrap;rounded=0;" vertex="1" parent="1">
          <mxGeometry x="480" y="210" width="70" height="30" as="geometry" />
        </mxCell>
        <mxCell id="fPccxqtcktVZ9pP1lJ3p-24" value="" style="endArrow=classic;html=1;rounded=0;exitX=1;exitY=0.25;exitDx=0;exitDy=0;entryX=0;entryY=0.25;entryDx=0;entryDy=0;" edge="1" parent="1" source="fPccxqtcktVZ9pP1lJ3p-21" target="fPccxqtcktVZ9pP1lJ3p-22">
          <mxGeometry width="50" height="50" relative="1" as="geometry">
            <mxPoint x="530" y="490" as="sourcePoint" />
            <mxPoint x="580" y="440" as="targetPoint" />
          </mxGeometry>
        </mxCell>
        <mxCell id="fPccxqtcktVZ9pP1lJ3p-25" value="" style="endArrow=classic;html=1;rounded=0;exitX=0;exitY=0.75;exitDx=0;exitDy=0;entryX=1;entryY=0.75;entryDx=0;entryDy=0;" edge="1" parent="1" source="fPccxqtcktVZ9pP1lJ3p-22" target="fPccxqtcktVZ9pP1lJ3p-21">
          <mxGeometry width="50" height="50" relative="1" as="geometry">
            <mxPoint x="490" y="220" as="sourcePoint" />
            <mxPoint x="550" y="220" as="targetPoint" />
          </mxGeometry>
        </mxCell>
      </root>
    </mxGraphModel>
  </diagram>
</mxfile>
